<svg width="246" height="220" viewBox="0 0 246 220" fill="none" xmlns="http://www.w3.org/2000/svg">
<mask id="mask0_2_15" style="mask-type:alpha" maskUnits="userSpaceOnUse" x="61" y="27" width="161" height="165">
<path d="M210.853 92.2091C225.273 99.6928 225.226 120.337 210.771 127.755L90.49 189.481C77.1629 196.32 61.3243 186.621 61.3586 171.642L61.6425 47.6383C61.6768 32.6588 77.5597 23.0321 90.8553 29.9324L210.853 92.2091Z" fill="url(#paint0_linear_2_15)"/>
</mask>
<g mask="url(#mask0_2_15)">
<rect x="60.2504" y="26.2802" width="207" height="171" fill="url(#paint1_linear_2_15)"/>
<rect x="99.2504" y="47.2802" width="168" height="123" rx="30" fill="url(#paint2_linear_2_15)"/>
<rect x="133.25" y="63.2802" width="168" height="92" rx="30" fill="url(#paint3_linear_2_15)"/>
<g filter="url(#filter0_f_2_15)">
<rect x="89.5514" y="25.2802" width="153" height="15.8928" transform="rotate(27.348 89.5514 25.2802)" fill="#F2DD72"/>
</g>
<g filter="url(#filter1_f_2_15)">
<rect x="69.5514" y="24.2802" width="22.0049" height="15.8928" transform="rotate(27.348 69.5514 24.2802)" fill="#FFB700"/>
</g>
<g filter="url(#filter2_f_2_15)">
<rect x="117.551" y="44.2802" width="22.0049" height="15.8928" transform="rotate(27.348 117.551 44.2802)" fill="#FFD500"/>
</g>
<g filter="url(#filter3_f_2_15)">
<rect x="148.551" y="63.2802" width="22.0049" height="15.8928" transform="rotate(27.348 148.551 63.2802)" fill="#FCE369"/>
</g>
</g>
<defs>
<filter id="filter0_f_2_15" x="42.2504" y="-14.7198" width="223.201" height="164.404" filterUnits="userSpaceOnUse" color-interpolation-filters="sRGB">
<feFlood flood-opacity="0" result="BackgroundImageFix"/>
<feBlend mode="normal" in="SourceGraphic" in2="BackgroundImageFix" result="shape"/>
<feGaussianBlur stdDeviation="20" result="effect1_foregroundBlur_2_15"/>
</filter>
<filter id="filter1_f_2_15" x="32.2504" y="-5.71982" width="86.8465" height="84.2254" filterUnits="userSpaceOnUse" color-interpolation-filters="sRGB">
<feFlood flood-opacity="0" result="BackgroundImageFix"/>
<feBlend mode="normal" in="SourceGraphic" in2="BackgroundImageFix" result="shape"/>
<feGaussianBlur stdDeviation="15" result="effect1_foregroundBlur_2_15"/>
</filter>
<filter id="filter2_f_2_15" x="80.2504" y="14.2802" width="86.8465" height="84.2254" filterUnits="userSpaceOnUse" color-interpolation-filters="sRGB">
<feFlood flood-opacity="0" result="BackgroundImageFix"/>
<feBlend mode="normal" in="SourceGraphic" in2="BackgroundImageFix" result="shape"/>
<feGaussianBlur stdDeviation="15" result="effect1_foregroundBlur_2_15"/>
</filter>
<filter id="filter3_f_2_15" x="111.25" y="33.2802" width="86.8465" height="84.2254" filterUnits="userSpaceOnUse" color-interpolation-filters="sRGB">
<feFlood flood-opacity="0" result="BackgroundImageFix"/>
<feBlend mode="normal" in="SourceGraphic" in2="BackgroundImageFix" result="shape"/>
<feGaussianBlur stdDeviation="15" result="effect1_foregroundBlur_2_15"/>
</filter>
<linearGradient id="paint0_linear_2_15" x1="73.2504" y1="192.28" x2="74.2504" y2="29.7802" gradientUnits="userSpaceOnUse">
<stop stop-color="#E91F93"/>
<stop offset="0.514423" stop-color="#F4566E"/>
<stop offset="1" stop-color="#FC9951"/>
</linearGradient>
<linearGradient id="paint1_linear_2_15" x1="78.7504" y1="191.28" x2="77.7504" y2="31.2802" gradientUnits="userSpaceOnUse">
<stop stop-color="#E91F93"/>
<stop offset="0.495192" stop-color="#F4566E"/>
<stop offset="1" stop-color="#FC9951"/>
</linearGradient>
<linearGradient id="paint2_linear_2_15" x1="183.25" y1="47.2802" x2="183.25" y2="170.28" gradientUnits="userSpaceOnUse">
<stop stop-color="#FFC071"/>
<stop offset="1" stop-color="#FE3BC1"/>
</linearGradient>
<linearGradient id="paint3_linear_2_15" x1="217.25" y1="63.2802" x2="217.25" y2="155.28" gradientUnits="userSpaceOnUse">
<stop stop-color="#FCD598"/>
<stop offset="1" stop-color="#FB6DDB"/>
</linearGradient>
</defs>
</svg>
